<svg xmlns="http://www.w3.org/2000/svg" version="1.1" xmlns:xlink="http://www.w3.org/1999/xlink" viewBox="0 0 11.729073936383502 10.005421698656004"><g transform="matrix(0.8467238103894993,0,0,0.8467238103894993,1.6656903370224576,7.4443294413321315)"><rect width="13.540281905970128" height="13.540281905970128" x="-1.8112079695866257" y="-9.653747817519754" fill="#ffffff"></rect><g transform="matrix(1,0,0,1,0,0)" clip-path="url(#SvgjsClipPath16292)"><g clip-path="url(#SvgjsClipPath16287e0608530-c4b8-4b68-b5be-b12ae9722710)"><path d=" M 4.51397787041998 -5.355152399423535 C 4.435216392068229 -5.352232126507547 4.357313817515298 -5.348538840172624 4.2803560371410665 -5.344158430798645 C 3.9993227141673153 -5.327925149000956 3.730743496276448 -5.301814473516842 3.47882701208268 -5.267286540804296 C 3.392678961061081 -5.2554336683805865 3.3085063887767663 -5.242550111398294 3.2264810759895015 -5.228807650617181 C 2.9260365271624282 -5.178389997626475 2.654451145975692 -5.115174678033356 2.4204857511772513 -5.0418242936141695 C 2.28589552590223 -4.999652117092131 2.1635017345704473 -4.954130215754694 2.0555375270588323 -4.905688041501273 C 1.7088839538552687 -4.750054673155173 1.5079863553113801 -4.56521857564921 1.5079863553113801 -4.366554126982252 C 1.5079863553113801 -4.283755800776049 1.5425142880239253 -4.204736651284652 1.60693207293539 -4.128036542050069 C 1.6782210882374116 -4.211607881675209 1.7855840630898532 -4.291400044585544 1.9243829169790894 -4.365008100144378 C 2.4795783325360343 -4.660213335798652 3.53560055318465 -4.865749014856164 4.763403533597172 -4.885675582988778 L 4.946693604265261 -5.3634837662720845 C 4.800078725806766 -5.363311985512319 4.655782887605085 -5.360477602976216 4.51397787041998 -5.355152399423535 Z" fill="#bfbe5f" transform="matrix(1,0,0,1,0,0)" fill-rule="nonzero"></path></g><g clip-path="url(#SvgjsClipPath16287e0608530-c4b8-4b68-b5be-b12ae9722710)"><path d=" M 6.69112721966773 -5.228635869857417 C 6.609101906880466 -5.24237833063853 6.52492933459615 -5.255175997240942 6.438781283574553 -5.26702886966465 C 6.186864799380783 -5.301642692757078 5.918285581489915 -5.327667477861309 5.637252258516164 -5.343814869279117 C 5.560294478141935 -5.348195278653097 5.482391903589003 -5.3518885649880215 5.403630425237251 -5.354808837904008 C 5.351838526168434 -5.35669842626141 5.299788955959969 -5.358416233859049 5.247309933852096 -5.359704589557278 L 5.281837866564641 -4.882669419692911 C 6.455186346132005 -4.851233540656116 7.458214202393456 -4.6503359421122274 7.993483049817788 -4.365008100144379 C 8.132281903707025 -4.2914000445855445 8.239644878559467 -4.21160788167521 8.310933893861488 -4.128036542050069 C 8.375351678772951 -4.204736651284653 8.409879611485497 -4.283755800776051 8.409879611485497 -4.366554126982254 C 8.409879611485497 -4.5651326852693295 8.208982012941608 -4.7499687827752926 7.862328439738044 -4.905688041501273 C 7.754192451466667 -4.954130215754695 7.631798660134883 -4.999652117092131 7.496950763720217 -5.0418242936141695 C 7.2630712593016575 -5.115088787653475 6.991485878114921 -5.178218216866711 6.69112721966773 -5.228635869857417 Z" fill="#bfbe5f" transform="matrix(1,0,0,1,0,0)" fill-rule="nonzero"></path></g><g clip-path="url(#SvgjsClipPath16287e0608530-c4b8-4b68-b5be-b12ae9722710)"><path d=" M 9.25117588242923 -4.203963637865714 C 9.20900370590719 -4.128036542050068 9.137714690605168 -4.047557256100677 9.03876897298116 -3.966219066352468 C 8.887687794768805 -3.828966239301107 8.66145253415974 -3.7024497097349895 8.373891542314958 -3.590448654368923 C 8.370799488639207 -3.589675640949985 8.367793325343339 -3.5881296141121104 8.365474285086528 -3.5873566006931723 C 8.251240079843528 -3.5397733302385705 8.126956700154341 -3.494594990420664 7.9920229133597935 -3.4516498004796867 C 7.738216840808622 -3.3703975011113583 7.44833680870703 -3.2974765685915806 7.123155830473954 -3.2376968641937407 L 7.107781452475086 -3.2591694591642293 L 6.355467615089056 -4.312872639556032 L 5.448980545814922 -2.5582180689476086 L 5.281837866564641 -4.882669419692908 L 5.247309933852096 -5.3597045895572775 L 5.203162278592773 -5.976912859388993 L 5.199726663397494 -6.024582020223477 L 5.18194735476193 -5.978029434327459 L 4.94669360426526 -5.363483766272083 L 4.763403533597171 -4.885675582988777 L 4.10239117002566 -3.161769768378095 L 3.5509749311835193 -3.8657273218905837 L 2.9244046099446703 -3.2399300140706715 C 2.5555054283516814 -3.298936705049574 2.2189010295943064 -3.3740907874462827 1.924382916979088 -3.4615271941661114 C 1.3783777720695116 -3.6233446698637115 0.9780427114397274 -3.829653362340163 0.7878814103810828 -4.0604408130829714 C 0.732653896116987 -4.1279506516701865 0.6951198001085734 -4.196920626715395 0.6774263818528907 -4.26752251897836 C 0.6690091246244595 -4.300504424853031 0.6643710441108338 -4.3334863307277 0.6643710441108338 -4.366468236602371 L 0.6643710441108338 -3.755272293362392 C 0.6643710441108338 -3.537454289981757 0.8484341281978593 -3.3312314878851876 1.1720690795930595 -3.1517205939319073 L 1.1736151064309346 -3.1509475805129683 C 1.4366114496294755 -3.027437214242719 1.7434118865678128 -2.9170680760944094 2.091525596229369 -2.8235334524029625 C 2.2137476068013893 -2.7905515465282926 2.3413807113059706 -2.759545119390907 2.4734801155644153 -2.730600061370688 C 2.642168821652571 -2.6935813076415682 2.818501771550222 -2.659912278727841 3.0025648556372477 -2.6302800976685683 L 3.157511100944291 -2.604942435603391 L 3.209217109633227 -2.656648444292327 L 3.3972311511948226 -2.844662485853922 L 3.494888513120603 -2.9423198477797037 L 4.178146485081541 -2.0688146843802384 L 4.301055618692618 -2.335504313913704 L 4.482541991383185 -2.729741157571869 L 4.777231884758166 -3.369624487692421 L 4.943429769829746 -1.8426653141510556 L 4.968509760755276 -1.6125649864473042 L 5.01970042716492 -1.1425728277332556 L 5.051823429240771 -0.8473675920789843 L 5.117014227571174 -0.25 L 5.396157962187521 -0.8765703212388498 L 5.3962438525674035 -0.8768279923784945 L 5.5731780351242275 -1.274672231991702 L 5.754149065535503 -1.6816208518723972 L 5.868125599638855 -1.9379177454401457 L 6.434486764580454 -3.211672079089513 L 6.558512473129995 -3.0166150263775973 L 6.731753369351894 -2.7441707413920406 L 6.821766487468182 -2.602709285726463 C 7.031339014380148 -2.6327709186851473 7.23112003798557 -2.66807186481663 7.420078873725868 -2.7074955491824477 C 7.558791837235223 -2.736440607202666 7.69192192605225 -2.7674470343400506 7.817923113339075 -2.8006007209744848 C 8.699072520548036 -3.0352532388119777 9.253494922686041 -3.3757227046640392 9.253494922686041 -3.7553581837422723 L 9.253494922686041 -4.207828704960402 L 9.25117588242923 -4.203963637865714 Z" fill="#8c1627" transform="matrix(1,0,0,1,0,0)" fill-rule="nonzero"></path></g><g clip-path="url(#SvgjsClipPath16287e0608530-c4b8-4b68-b5be-b12ae9722710)"><path d=" M 4.958804147828616 -1.0786703851010833 C 4.9135399176308265 -1.1064988681828352 4.801624752644642 -1.2462425162507724 4.689022464619401 -1.620381011016562 C 4.778004898177105 -1.615227588223644 4.8679321259135095 -1.612479096067423 4.958804147828616 -1.612479096067423 C 4.96206798226413 -1.612479096067423 4.965245926319763 -1.612564986447305 4.968509760755277 -1.612564986447305 L 4.943429769829747 -1.8426653141510574 C 4.836324466116951 -1.8430088756705851 4.7305934084822665 -1.8472175042848011 4.6263224873055755 -1.8550335288540598 C 4.6234881047694705 -1.867144072417414 4.620567831853485 -1.8791687256008869 4.617733449317379 -1.8916228306837706 C 4.560616346695881 -2.1407049323414347 4.515266226118211 -2.4243149667116457 4.482541991383185 -2.7296552671919887 L 4.301055618692618 -2.335504313913704 C 4.325448486579093 -2.1732573863166937 4.353448750420609 -2.0208878524061085 4.384626958317758 -1.8800276293997067 C 4.147054167564276 -1.911291727676736 3.9192728801173358 -1.9615375999076798 3.70489049193198 -2.0284462058357207 C 3.5734782107125924 -2.2733196788791705 3.47006619333472 -2.548684236780712 3.3974029319545878 -2.844834266613687 L 3.2093888903929924 -2.6568202250520914 C 3.260579556802637 -2.4747326197023494 3.322420630317643 -2.3020929561396244 3.393881426379428 -2.1409626034810785 C 3.0302215579592375 -2.291614329794025 2.7164640002504625 -2.4930272706172056 2.473651896324181 -2.7307718421304514 C 2.3415524920657367 -2.7597169001506696 2.2139193875611545 -2.790723327288056 2.091697376989135 -2.823705233162726 C 2.530253656666387 -1.6671053776723435 3.649147635388592 -0.8458215652411072 4.95897592858838 -0.8458215652411072 C 4.990411807625174 -0.8458215652411072 5.021074673243032 -0.8465945786600431 5.051737538860889 -0.8473675920789816 L 5.019614536785038 -1.1425728277332539 C 4.994105093960099 -1.1075295527414175 4.9730619508890195 -1.0874312038490421 4.958804147828616 -1.0786703851010833 Z M 2.616401707687986 -2.313602267043807 C 2.8828336660818055 -2.1192323373709465 3.1971924564497542 -1.957844313572756 3.546250960290012 -1.8391438085758978 C 3.684105020000547 -1.5989084160460738 3.8456648245585012 -1.3939739696477318 4.024918047372138 -1.2337025207880075 C 3.4481641464648223 -1.4352872423709524 2.9558404889814653 -1.8181006655048169 2.616401707687986 -2.313602267043807 Z M 3.8813952225893935 -1.7413146658903518 C 4.0620226914811415 -1.6966516683517359 4.249950842662855 -1.6628967490581283 4.443547758916778 -1.6411664829479946 C 4.500664861538278 -1.433741215533078 4.565683879108915 -1.2604144289312966 4.6365434425115275 -1.1290021477119065 C 4.361264774989866 -1.220904854185597 4.102219389265896 -1.430047929198154 3.8813952225893935 -1.7413146658903518 Z" fill="#006fbf" transform="matrix(1,0,0,1,0,0)" fill-rule="nonzero"></path></g><g clip-path="url(#SvgjsClipPath16287e0608530-c4b8-4b68-b5be-b12ae9722710)"><path d=" M 3.393795535999545 -5.685315019689762 C 3.3301507645070187 -5.541792194907019 3.2741502368239845 -5.3890790994769056 3.2264810759894997 -5.228721760237299 C 3.3085063887767654 -5.242464221018412 3.39267896106108 -5.255347778000705 3.478827012082679 -5.267200650424414 C 3.540925756737331 -5.455901815025066 3.6167669621730956 -5.633523120620945 3.704804601552097 -5.797745526955239 C 3.919272880117335 -5.864654132883281 4.147054167564274 -5.914900005114223 4.384541067937875 -5.946164103391254 C 4.344086699013475 -5.763561155762222 4.309043424021638 -5.56163287265975 4.280270146761184 -5.344072540418761 C 4.357227927135415 -5.3485388401726235 4.435130501688346 -5.352146236127666 4.513891980040098 -5.355066509043652 C 4.542321695781023 -5.56257766683845 4.577021409253334 -5.757291158030839 4.617647558937497 -5.934483011727308 C 4.620481941473601 -5.946937116810192 4.623402214389587 -5.958961769993665 4.6262365969256924 -5.97107231355702 C 4.735489160135537 -5.979231899645805 4.846373640563139 -5.983612309019786 4.958718257448734 -5.983612309019786 C 5.033786449465561 -5.983612309019786 5.108167518443333 -5.9816368302825 5.181861464382048 -5.9779435439475765 L 5.199640773017613 -6.024496129843595 L 5.203076388212891 -5.97682696900911 C 5.232536788512401 -5.975195051791354 5.26191129843203 -5.9732195730540685 5.2911140275918935 -5.97107231355702 C 5.294034300507881 -5.958961769993664 5.296868683043984 -5.946937116810191 5.299703065580089 -5.934483011727307 C 5.340329215264253 -5.757205267650956 5.375028928736561 -5.562319995698804 5.40354453485737 -5.354722947524124 C 5.482220122829239 -5.351802674608137 5.560208587762053 -5.348195278653095 5.637166368136284 -5.343728978899233 C 5.608393090875829 -5.5612893111402215 5.573349815883992 -5.763389375002457 5.532895446959593 -5.946078213011371 C 5.770468237713076 -5.914814114734341 5.9982495251600145 -5.864568242503398 6.21263191334537 -5.797659636575357 C 6.300755443104253 -5.6334372302410625 6.376596648540019 -5.455730034265301 6.4386953931946715 -5.266942979284768 C 6.5248434442162715 -5.255090106861059 6.609016016500585 -5.242292440258647 6.691041329287851 -5.228549979477535 C 6.643372168453367 -5.38890731871714 6.587371640770332 -5.541620414147255 6.523726869277805 -5.68522912930988 C 6.9144422073608105 -5.52341165361228 7.247610990922907 -5.302931048455306 7.496950763720218 -5.041738403234286 C 7.631712769755003 -4.999566226712247 7.754106561086786 -4.954044325374811 7.8623284397380475 -4.90560215112139 C 7.850303786554573 -4.9407313164931095 7.8375920103320444 -4.975431029965419 7.824364891830224 -5.009958962677963 C 7.82419311107046 -5.010216633817609 7.824021330310696 -5.010388414577372 7.823849549550932 -5.010646085717019 C 7.821101057394711 -5.017860877627104 7.818438455618368 -5.025075669537187 7.815604073082263 -5.032290461447271 C 7.804953665976901 -5.059431821489968 7.793959697352012 -5.0864014007729015 7.782536276827713 -5.113199199296071 C 7.777039292515267 -5.126168646658245 7.771284637063178 -5.139052203640539 7.765615871990968 -5.151935760622832 C 7.75694094362289 -5.171432876856034 7.748094234495049 -5.190929993089238 7.739075744607445 -5.210255328562678 C 7.732633966116298 -5.22399778934379 7.726278078005034 -5.2377402501249035 7.719578628374242 -5.251396820526132 C 7.7078975367102975 -5.27544612689308 7.695872883526823 -5.299237762120381 7.683676449583585 -5.322943506967801 C 7.677148780712557 -5.335483502430566 7.6705352214616465 -5.3480234978933305 7.663835771830854 -5.360477602976213 C 7.651982899407144 -5.382637320985758 7.639786465463907 -5.404625258235537 7.627418250760907 -5.426527305105436 C 7.619516335811766 -5.440441546646313 7.611442640102863 -5.4541840074274255 7.603368944393959 -5.467926468208538 C 7.592203195009305 -5.4868223517825685 7.580951555244771 -5.505632344976716 7.569356353960705 -5.524270557411098 C 7.5621415620506225 -5.535951649075045 7.554926770140537 -5.54763274073899 7.547540197470689 -5.559142051643171 C 7.531908148332174 -5.58370670028941 7.51593253767413 -5.608099568175885 7.499527475116678 -5.632234764922714 C 7.49205501206695 -5.643228733547604 7.484496658637337 -5.65405092141273 7.476938305207723 -5.664873109277856 C 7.464655980884604 -5.682480637153657 7.45220187580172 -5.700002274649575 7.439490099579193 -5.717352131385729 C 7.432103526909345 -5.727487196211801 7.424888734999262 -5.73762226103787 7.417416271949532 -5.747671435484059 C 7.399894634453613 -5.771119509191832 7.3820294354381675 -5.794138131000196 7.3638206749031925 -5.817070862428677 C 7.355317527294879 -5.8278930502938024 7.3466425989268025 -5.838543457399165 7.337967670558724 -5.849193864504527 C 7.322936854079383 -5.867574405799266 7.307734256840277 -5.885869056714121 7.292359878841408 -5.903906036489332 C 7.281795362115927 -5.916274251192333 7.2711449550105645 -5.928556575515453 7.26040865752532 -5.94075300945869 C 7.245377841045979 -5.957845195055199 7.230175243806873 -5.974765599891943 7.214714975428122 -5.991428333589043 C 7.205438814400869 -6.001563398415112 7.196076762993738 -6.011612572861301 7.186628821206723 -6.021575856927607 C 7.166616362694228 -6.042704890378568 7.1464321234219685 -6.063576252689883 7.1259043226301815 -6.084104053481669 C 7.116714051982812 -6.0932943241290385 7.1073520005756805 -6.102312814016643 7.097989949168547 -6.111331303904248 C 7.082873242309324 -6.126018558864063 7.067670645070218 -6.140534033064113 7.052296267071347 -6.154963616884281 C 7.042676544524568 -6.163982106771886 7.033142712357672 -6.173000596659491 7.023351209051129 -6.181847305787332 C 7.001964504460523 -6.201344422020536 6.98032012873027 -6.220412086354329 6.958418081860373 -6.239222079548477 C 6.947853565134892 -6.248326459815964 6.937117267649649 -6.25734494970357 6.926380970164405 -6.266363439591174 C 6.909546455707541 -6.2804494618918145 6.892626050870797 -6.294277813052809 6.875533865274289 -6.30793438345404 C 6.861877294873056 -6.318928352078929 6.848048943712062 -6.329750539944056 6.834134702171187 -6.340572727809182 C 6.816097722395976 -6.35457285972994 6.797888961861002 -6.368315320511053 6.7795084205662635 -6.381971890912284 C 6.7679132192822 -6.390560928900479 6.756318017998137 -6.399064076508791 6.744551035954308 -6.407481333737223 C 6.721618304525827 -6.4238863962946775 6.698513792337582 -6.440119678092366 6.67515160900969 -6.456009398370528 C 6.663556407725626 -6.463825422939785 6.65187531606168 -6.471383776369397 6.640194224397734 -6.479028020178891 C 6.623359709940872 -6.490021988803781 6.606525195484009 -6.500930067048788 6.5894330098875 -6.511666364534033 C 6.577322466324146 -6.519310608343527 6.565211922760788 -6.52695485215302 6.55292959843767 -6.53442731520275 C 6.528708511310959 -6.549200460542447 6.504229753044604 -6.563630044362614 6.4794933236386 -6.577716066663255 C 6.466609766656307 -6.585102639333103 6.4536403192941325 -6.592231540863304 6.440670871931958 -6.599446332773389 C 6.42314923443604 -6.60915194570005 6.405541706560238 -6.618599887487065 6.387848288304557 -6.627961938894197 C 6.37084199308793 -6.636980428781802 6.35366391711154 -6.645827137909643 6.336485841135148 -6.654502066277721 C 6.316301601862889 -6.664723021483673 6.295945581830867 -6.67468630554998 6.275503671418962 -6.68439191847664 C 6.261589429878085 -6.6910054777275505 6.247589297957327 -6.6975331465985795 6.233503275656686 -6.703974925089725 C 6.212631913345374 -6.713508757256623 6.191674660654175 -6.722784918283874 6.1705456272032135 -6.73188929855136 C 6.1524227570481225 -6.739705323120618 6.134213996513148 -6.74726367655023 6.115919345598292 -6.75473613959996 C 6.09822592734261 -6.761950931510044 6.080360728327164 -6.769079833040247 6.062495529311717 -6.775951063430803 C 6.047894164731784 -6.781619828503012 6.033292800151853 -6.787202703195339 6.018519654812156 -6.792699687507784 C 5.992151308188396 -6.802405300434445 5.965611180804873 -6.811767351841578 5.938899272661586 -6.820785841729182 C 5.923954346562127 -6.825853374142217 5.908837639702903 -6.830577345035725 5.89380682322356 -6.835387206309115 C 5.876027514587996 -6.841055971381323 5.858162315572551 -6.8465529556937685 5.840211226177223 -6.851964049626331 C 5.8209717810836645 -6.8577187050784225 5.801732335990107 -6.863387470150631 5.782321110136786 -6.868712673703312 C 5.759731940227831 -6.874982671434695 5.737056879938995 -6.881080888406313 5.714295929270279 -6.886835543858404 C 5.698406208992117 -6.890872391712856 5.682430598334074 -6.894737458807544 5.666454987676031 -6.89851663552235 C 5.646442529163535 -6.903240606415857 5.626258289891276 -6.907706906169719 5.606074050619017 -6.912087315543698 C 5.583914332609473 -6.916811286437206 5.5616687242200475 -6.921363476570949 5.539251335070857 -6.9256579955650475 C 5.5202695611169466 -6.929265391520089 5.501287787163036 -6.932786897095249 5.482220122829242 -6.936050731530763 C 5.465986841031552 -6.938885114066867 5.449667668853982 -6.94163360622309 5.433262606296528 -6.944124427239667 C 5.404918780935484 -6.948504836613647 5.376403174814675 -6.95262757484798 5.347801678313983 -6.956234970803022 C 5.33182606765594 -6.958210449540307 5.315764566618015 -6.959928257137946 5.299788955959972 -6.961731955115467 C 5.280721291626178 -6.963879214612517 5.26148184653262 -6.96576880296992 5.242328291818945 -6.9675725009474405 C 5.2263526811609005 -6.969032637405434 5.210377070502857 -6.970578664243309 5.194315569464933 -6.971781129561656 C 5.16519873068495 -6.974014279438586 5.135996001525086 -6.975646196656344 5.1067073819853395 -6.977106333114337 C 5.090216429048005 -6.977879346533275 5.07372547611067 -6.978480579192448 5.057148632793453 -6.97899592147174 C 5.035590147443082 -6.979683044510796 5.014031662092712 -6.9801124964102055 4.992387286362461 -6.98028427716997 C 4.981221536977807 -6.980370167549851 4.970141677973034 -6.980713729069379 4.958975928588381 -6.980713729069379 C 4.948153740723254 -6.980713729069379 4.9373315528581285 -6.980456057929733 4.926509364993002 -6.98028427716997 C 4.90443553736334 -6.980026606030324 4.8823617097336784 -6.979683044510796 4.860373772483898 -6.97899592147174 C 4.844312271445973 -6.978480579192448 4.828250770408047 -6.977879346533275 4.812189269370122 -6.97719222349422 C 4.782127636411438 -6.975732087036226 4.752066003452755 -6.974014279438587 4.722262041633717 -6.9717811295616565 C 4.707660677053784 -6.970664554623191 4.693145202853735 -6.969204418165198 4.678629728653684 -6.967916062466968 C 4.657500695202724 -6.966026474109565 4.636371661751763 -6.963879214612517 4.615328518680684 -6.961560174355704 C 4.600898934860517 -6.959928257137947 4.586383460660466 -6.958382230300072 4.571953876840299 -6.956578532322551 C 4.541978134261496 -6.952799355607745 4.512174172442458 -6.9485048366136475 4.482456101003304 -6.943866756100022 C 4.468112407563018 -6.941633606223091 4.453854604502613 -6.939228675586396 4.4395968014422085 -6.936737854569819 C 4.416664070013727 -6.932872787475132 4.39390311934501 -6.928664158860916 4.3711421686762915 -6.924197859107054 C 4.355596009917658 -6.921191695811186 4.3399639607791425 -6.918099642135436 4.324503692400391 -6.914835807699922 C 4.298650688055924 -6.9094247137673594 4.272883574091338 -6.903584167935386 4.247288240886515 -6.897571841343649 C 4.234147012764577 -6.894479787667899 4.221005784642639 -6.891301843612267 4.207950446900581 -6.88795211879687 C 4.1779747043217785 -6.880393765367259 4.148084852122859 -6.872577740798 4.118366780683704 -6.864074593189688 C 4.107974044717988 -6.861154320273702 4.097753089512036 -6.857890485838187 4.087360353546318 -6.854884322542319 C 4.063740499078781 -6.847841311391999 4.040120644611244 -6.840626519481915 4.016758461283353 -6.8330681660523025 C 4.005678602278581 -6.829460770097261 3.9945128528939264 -6.825939264522101 3.9834329938891555 -6.822245978187176 C 3.953629032070117 -6.81228269412087 3.923996851010844 -6.801804067775271 3.894536450711333 -6.790895989530264 C 3.8842296051254985 -6.7870309224355765 3.873922759539665 -6.783079964961006 3.86361591395383 -6.7791290074864365 C 3.8385359230283 -6.769509284939658 3.813713603242416 -6.759631891253233 3.788977173836412 -6.749496826427163 C 3.7815047107866824 -6.746404772751412 3.774032247736952 -6.743484499835426 3.766645675067104 -6.740392446159675 C 3.7366699324883026 -6.727680669937146 3.7069518610491463 -6.714453551435326 3.677491460749637 -6.7008828714139765 C 3.6682152997223856 -6.696588352419879 3.6590250290750173 -6.692293833425781 3.649834758427648 -6.687999314431684 C 3.6199449062287274 -6.673913292131044 3.590312725169454 -6.6594837083108755 3.5609382152498252 -6.644452891831533 C 3.5561283539764372 -6.641962070814957 3.5513184927030466 -6.639385359418498 3.546508631429658 -6.63680864802204 C 3.5197967232863703 -6.622894406481163 3.4933424862827285 -6.608636603420759 3.467060030038851 -6.593949348460945 C 3.4597593477488853 -6.589826610226611 3.452372775079037 -6.58578976237216 3.445072092789072 -6.5816670241378255 C 3.415955254009089 -6.565090180820608 3.387010195988871 -6.548083885603981 3.3584945898680627 -6.530562248108064 C 3.3525681536562075 -6.52686896177314 3.346641717444353 -6.523175675438215 3.3407152812324976 -6.519482389103292 C 3.3143469346087375 -6.503077326545838 3.288150368744742 -6.4862428120889755 3.262297364400274 -6.469064736112585 C 3.2581746261659403 -6.466316243956363 3.254051887931607 -6.463739532559903 3.2500150400771557 -6.460991040403681 C 3.2213276531965827 -6.441665704930242 3.1929838278355387 -6.42182502717751 3.164983563994022 -6.401640787905252 C 3.159400689301695 -6.397603940050799 3.153817814609368 -6.3935670921963474 3.148320830296923 -6.389444353962014 C 3.090860166155895 -6.347358067819856 3.034859638472862 -6.3032963029404145 2.980576918387468 -6.25734494970357 C 2.9762823993933707 -6.253737553748527 2.971987880399273 -6.250130157793486 2.9677792517850574 -6.246522761838444 C 2.940723782122242 -6.223332359270316 2.9139259835990727 -6.199798395182661 2.8876435273551952 -6.1757490888157145 C 2.885324487098382 -6.173601829318665 2.883005446841569 -6.171368679441734 2.880686406584757 -6.1692214199446855 C 2.85491929262017 -6.1455156750972675 2.829581630554994 -6.121380478350438 2.804673420389228 -6.096729939324317 C 2.8027838320318246 -6.094840350966915 2.80080835329454 -6.093036652989393 2.7989187649371363 -6.091147064631991 C 2.7731516509725505 -6.065551731427168 2.7478139889073745 -6.039441055943055 2.7229057787416076 -6.012986818939413 C 2.7199855058256217 -6.009894765263662 2.7171511232895167 -6.006802711587913 2.7142308503735304 -6.003624767532281 C 2.6640708685224705 -5.949771499346296 2.615886365408694 -5.894200423562672 2.569677341032203 -5.836911540181409 C 2.5672724103955096 -5.833991267265422 2.564867479758814 -5.830985103969553 2.5625484395020015 -5.828064831053568 C 2.5155664017065726 -5.769315811214312 2.470645733028311 -5.708848983777417 2.4280441046068626 -5.646664348742883 C 2.4270134200482794 -5.64520421228489 2.4260686258695774 -5.643829966206777 2.4250379413109937 -5.642369829748785 C 2.4039089078600338 -5.611449292991281 2.3832952166883645 -5.580013413954487 2.3631968677959874 -5.548233973398164 C 2.3618226217178764 -5.546086713901115 2.3604483756397654 -5.543853564024184 2.3590741295616535 -5.541620414147253 C 2.3190492125366635 -5.477889752274844 2.2813433357684856 -5.412527173184678 2.2460423896370036 -5.345790348016401 C 2.2445822531790096 -5.343041855860178 2.243122116721017 -5.340293363703956 2.2416619802630233 -5.337544871547733 C 2.206361034131541 -5.270292704100163 2.173465018636753 -5.201580400194601 2.1430598241585415 -5.131493850210926 C 2.142286810739604 -5.1296901522334055 2.141427906940784 -5.127886454255885 2.140654893521847 -5.125996865898482 C 2.125538186662623 -5.090953590906644 2.111108602842455 -5.055566754395279 2.0972802516814597 -5.0198363563643875 C 2.0965931286424047 -5.018118548766748 2.0959918959832313 -5.016400741169109 2.095304772944175 -5.01468293357147 C 2.0814764217831803 -4.978694864400932 2.06824930328136 -4.942449124090747 2.055709307818595 -4.9057739318811535 C 2.16367351533021 -4.9542161061345755 2.2860673066619936 -4.999738007472011 2.4206575319370143 -5.04191018399405 C 2.669911414354443 -5.3029310484553065 3.002994307536658 -5.523497543992162 3.393795535999545 -5.685315019689762 Z M 7.3012065879692445 -5.512589465747154 C 7.034774629575425 -5.706959395420014 6.720415839207477 -5.868347419218205 6.371357335367218 -5.987047924215064 C 6.233503275656685 -6.227283316744887 6.07194347109873 -6.432217763143228 5.892690248285094 -6.592489212002953 C 6.469358258812528 -6.390818600040126 6.961767806675765 -6.008091067286143 7.3012065879692445 -5.512589465747154 Z M 6.036213073067836 -6.084877066900608 C 5.85558560417609 -6.129540064439224 5.667657452994376 -6.163294983732832 5.474060536740453 -6.185025249842966 C 5.416943434118954 -6.392450517257883 5.351924416548314 -6.565777303859665 5.281064853145703 -6.6971895850790535 C 5.5563435206673635 -6.605200988225482 5.815303016011453 -6.396057913212926 6.036213073067836 -6.084877066900608 Z M 4.958804147828616 -6.7475213476898785 C 5.004068378026405 -6.719692864608126 5.1159835430125895 -6.579949216540188 5.22858583103783 -6.2058107217744 C 5.139603397480126 -6.210964144567317 5.049676169743722 -6.213712636723539 4.958804147828616 -6.213712636723539 C 4.8679321259135095 -6.213712636723539 4.778004898177105 -6.210964144567317 4.689022464619401 -6.2058107217744 C 4.80162475264464 -6.579949216540188 4.9135399176308265 -6.719692864608126 4.958804147828616 -6.7475213476898785 Z M 4.6365434425115275 -6.6971895850790535 C 4.565683879108915 -6.565777303859665 4.500664861538278 -6.392450517257883 4.443547758916778 -6.185025249842966 C 4.249950842662856 -6.163294983732833 4.062022691481142 -6.129540064439225 3.8813952225893935 -6.084877066900608 C 4.102219389265896 -6.396057913212926 4.361264774989866 -6.605200988225482 4.6365434425115275 -6.6971895850790535 Z M 4.024918047372138 -6.592489212002953 C 3.8456648245585012 -6.432217763143228 3.6841909103804302 -6.227283316744887 3.546250960290012 -5.987047924215064 C 3.1971924564497542 -5.868347419218205 2.8828336660818055 -5.706959395420014 2.616401707687986 -5.512589465747154 C 2.9558404889814653 -6.008091067286143 3.4481641464648223 -6.390818600040126 4.024918047372138 -6.592489212002953 Z" fill="#006fbf" transform="matrix(1,0,0,1,0,0)" fill-rule="nonzero"></path></g><g clip-path="url(#SvgjsClipPath16287e0608530-c4b8-4b68-b5be-b12ae9722710)"><path d=" M 6.523812759657686 -2.140876713101198 C 6.606525195484008 -2.3276023989645642 6.676439964707917 -2.5297883532066825 6.731753369351896 -2.744170741392038 L 6.558512473129996 -3.016615026377594 C 6.486020992509626 -2.6551024174544526 6.3692959662500535 -2.320044045534953 6.212803694105134 -2.0284462058357224 C 6.101317981018359 -1.9936606019835308 5.986310762356423 -1.9633412978852016 5.868125599638855 -1.937917745440143 L 5.754149065535503 -1.6816208518723954 C 5.850002729483764 -1.6985412567091407 5.944052695454503 -1.718553715221634 6.03629896344772 -1.7414005562702357 C 5.895524630821199 -1.5430796691228048 5.739290029815926 -1.3861579450784767 5.573178035124229 -1.2746722319917003 L 5.396243852567405 -0.8768279923784936 C 5.400194810041975 -0.8774292250376661 5.404059877136662 -0.877858676937076 5.408010834611233 -0.8784599095962502 C 5.438158357949798 -0.8829262093501118 5.468219990908482 -0.8876501802436181 5.498023952727521 -0.8928894934164182 C 5.498625185386695 -0.8929753837963004 5.499226418045867 -0.8930612741761834 5.499827650705042 -0.8931471645560656 C 5.5314353105016005 -0.8988159296282738 5.562785299158514 -0.9050000369797759 5.593963507055663 -0.9116135962306862 C 5.600834737446219 -0.9130737326886793 5.607620077456893 -0.914619759526552 5.614405417467568 -0.916079895984546 C 5.640258421812035 -0.921748661056756 5.665939645396739 -0.9276750972686099 5.691534978601561 -0.9339450949999923 C 5.697289634053653 -0.9354052314579864 5.703130179885625 -0.9366935871562134 5.708884835337717 -0.9381537236142092 C 5.771241251132015 -0.9538716631326052 5.832910543887257 -0.971479191008406 5.8936350424637975 -0.9908904168617285 C 5.89904613639636 -0.9926082244593672 5.904457230328924 -0.994411922436889 5.909868324261486 -0.996129730034526 C 5.937181465063947 -1.0050623295422492 5.9643228251066445 -1.014252600189618 5.991292404389578 -1.0238723227363975 C 5.994384458065329 -1.0249888976748638 5.997476511741079 -1.0260195822334461 6.000482675036947 -1.0271361571719133 C 6.0314032117944505 -1.0383019065565664 6.06215196779219 -1.0498971078406312 6.092643052650284 -1.0620935417838675 C 6.093501956449104 -1.0624371033033952 6.094360860247923 -1.062780664822923 6.0952197640467425 -1.0631242263424499 C 6.1235635894077864 -1.0744617564868673 6.151735634009067 -1.0863146289105776 6.179735897850584 -1.0984251724739318 C 6.184631649503855 -1.1005724319709804 6.189527401157126 -1.102719691468029 6.194423152810398 -1.1048669509650786 C 6.2223375262720335 -1.117149275288197 6.249994228594023 -1.129775161130845 6.277479150156247 -1.1428304988729021 C 6.278338053955067 -1.143259950772312 6.279196957753886 -1.1436035122918398 6.279969971172823 -1.1440329641912506 C 6.3093444810924515 -1.1580330961120096 6.338461319872432 -1.17263446069194 6.36732048751277 -1.187493496411519 C 6.370326650808638 -1.1890395232493942 6.373332814104506 -1.19067144046715 6.376424867780256 -1.1923033576849074 C 6.401333077946022 -1.2053586954269635 6.426069507352024 -1.2186717043086661 6.450634155998263 -1.2324141650897795 C 6.455529907651536 -1.2351626572460024 6.460425659304805 -1.2379111494022252 6.465321410958077 -1.240659641558448 C 6.520119473322763 -1.2715801783159506 6.573800960748985 -1.3041326322912106 6.626451763616622 -1.3383170034842289 C 6.630918063370483 -1.3412372764002152 6.635298472744463 -1.3441575493162006 6.639764772498324 -1.3470778222321877 C 6.661924490507868 -1.36167918681212 6.683912427757647 -1.3764523321518158 6.705728584247663 -1.3915690390110393 C 6.7104525551411704 -1.3948328734465525 6.7151765260346785 -1.3980967078820674 6.719900496928186 -1.4013605423175823 C 6.770747601818302 -1.4370050499685911 6.8203922413900715 -1.47428147483736 6.868834415643493 -1.512846255404356 C 6.873901948056528 -1.5168831032588095 6.87888359008968 -1.520919951113262 6.883951122502716 -1.5250426893475941 C 6.904307142534741 -1.5414477519050473 6.924405491427118 -1.558110485602147 6.944332059559731 -1.5750308904388914 C 6.9482830170343 -1.5783806152542867 6.95223397450887 -1.5816444496898017 6.956184931983439 -1.5850800648850791 C 6.9799765672107394 -1.605521975296984 7.003424640918514 -1.6262215568485354 7.0266150434866415 -1.647350590299495 C 7.028161070324515 -1.6487248363776068 7.029621206782511 -1.6501849728356 7.031081343240503 -1.651559218913711 C 7.052124486311581 -1.6708845543871513 7.072909958243014 -1.6905534513801177 7.093437759034801 -1.7104800195127314 C 7.098161729928307 -1.7150322096464743 7.102885700821816 -1.7196702901601002 7.1076096717153225 -1.724308370673726 C 7.127364459088171 -1.7437195965270469 7.146947465701258 -1.7633884935200141 7.166186910794815 -1.783315061652627 C 7.168334170291864 -1.7854623211496774 7.170481429788913 -1.7876954710266082 7.172542798906081 -1.7898427305236568 C 7.194444845775977 -1.812689571572255 7.216003331126348 -1.8358799741403837 7.23721825495719 -1.8594139382280392 C 7.239537295214003 -1.861990649624497 7.241770445090934 -1.8645673610209554 7.244089485347747 -1.867144072417414 C 7.262727697782131 -1.8879295443488457 7.281108239076867 -1.909058577799807 7.299145218852078 -1.9303593920105309 C 7.3026667244272385 -1.9344821302448656 7.306188230002398 -1.9386907588590816 7.309709735577558 -1.9428134970934163 C 7.350507666021486 -1.9914274521066 7.38984546000742 -2.041329762818017 7.427637227155481 -2.092434538847778 C 7.429183253993357 -2.0944959079649443 7.43072928083123 -2.096643167461993 7.432275307669106 -2.0987904269590416 C 7.450140506684552 -2.123183294845518 7.467748034560353 -2.1478338338716387 7.484926110536745 -2.1727420440374052 C 7.486300356614856 -2.174803413154571 7.487760493072848 -2.176778891891857 7.48913473915096 -2.1788402610090234 C 7.526497054399609 -2.2332947618541814 7.56214156205062 -2.288951728017688 7.59598237172411 -2.345811159499541 C 7.596068262103992 -2.3458970498794223 7.596068262103992 -2.3459829402593044 7.596154152483874 -2.3460688306391866 C 7.682044532365826 -2.4903646688408676 7.756339710963717 -2.642304750852043 7.817923113339076 -2.8006866113543643 C 7.69192192605225 -2.767532924719931 7.558877727615105 -2.7365264975825454 7.420078873725869 -2.707581439562327 C 7.180702384994864 -2.479800152115385 6.875619755654166 -2.286546797380991 6.523812759657686 -2.140876713101198 Z M 5.892690248285094 -1.2337025207880075 C 6.07194347109873 -1.3939739696477318 6.233417385276803 -1.5989084160460738 6.371357335367218 -1.8391438085758978 C 6.720415839207477 -1.957844313572756 7.034774629575425 -2.1192323373709465 7.3012065879692445 -2.313602267043807 C 6.961767806675765 -1.8181006655048169 6.469358258812528 -1.4352872423709524 5.892690248285094 -1.2337025207880075 Z" fill="#006fbf" transform="matrix(1,0,0,1,0,0)" fill-rule="nonzero"></path></g></g><g><path d=" M 1.5735000000000001 0.14549999999999996 L 1.314 1.203 L 0.9525 1.203 L 0.807 0.555 L 0.6585 1.203 L 0.297 1.203 L 0.0405 0.14549999999999996 L 0.3585 0.14549999999999996 L 0.4815 0.8685 L 0.648 0.14549999999999996 L 0.9705 0.14549999999999996 L 1.1325 0.8625 L 1.2555 0.14549999999999996 L 1.5735000000000001 0.14549999999999996 M 2.642983154296875 0.14549999999999996 L 2.642983154296875 1.203 L 2.3489831542968753 1.203 L 2.3489831542968753 0.7785000000000001 L 1.990483154296875 0.7785000000000001 L 1.990483154296875 1.203 L 1.6964831542968752 1.203 L 1.6964831542968752 0.14549999999999996 L 1.990483154296875 0.14549999999999996 L 1.990483154296875 0.543 L 2.3489831542968753 0.543 L 2.3489831542968753 0.14549999999999996 L 2.642983154296875 0.14549999999999996 M 3.47845458984375 1.0305 L 3.10345458984375 1.0305 L 3.04645458984375 1.203 L 2.73745458984375 1.203 L 3.12295458984375 0.14549999999999996 L 3.46195458984375 0.14549999999999996 L 3.8459545898437497 1.203 L 3.53545458984375 1.203 L 3.47845458984375 1.0305 M 3.40495458984375 0.8055000000000001 L 3.29095458984375 0.4635 L 3.1784545898437497 0.8055000000000001 L 3.40495458984375 0.8055000000000001 M 4.7369619140624994 0.14549999999999996 L 4.7369619140624994 0.37950000000000006 L 4.454961914062499 0.37950000000000006 L 4.454961914062499 1.203 L 4.1609619140625 1.203 L 4.1609619140625 0.37950000000000006 L 3.8819619140625 0.37950000000000006 L 3.8819619140625 0.14549999999999996 L 4.7369619140624994 0.14549999999999996 M 5.0609677734375 0 L 5.0429677734375 0.3420000000000001 L 4.844967773437499 0.3420000000000001 L 4.8239677734374995 0 L 5.0609677734375 0 M 5.303939208984374 1.12575 Q 5.185439208984374 1.038 5.176439208984375 0.8745 L 5.489939208984374 0.8745 Q 5.4944392089843745 0.93 5.522939208984375 0.9555 Q 5.551439208984375 0.9810000000000001 5.596439208984375 0.9810000000000001 Q 5.636939208984375 0.9810000000000001 5.663189208984375 0.9607500000000001 Q 5.689439208984375 0.9405000000000001 5.689439208984375 0.9045000000000001 Q 5.689439208984375 0.8580000000000001 5.645939208984375 0.8325 Q 5.602439208984375 0.807 5.504939208984375 0.7755000000000001 Q 5.401439208984375 0.7410000000000001 5.337689208984375 0.70875 Q 5.273939208984375 0.6765000000000001 5.226689208984375 0.6142500000000001 Q 5.179439208984375 0.552 5.179439208984375 0.4515 Q 5.179439208984375 0.34950000000000003 5.230439208984374 0.27675000000000005 Q 5.2814392089843745 0.20400000000000007 5.371439208984374 0.1665000000000001 Q 5.461439208984375 0.129 5.575439208984375 0.129 Q 5.759939208984375 0.129 5.870189208984375 0.21525000000000005 Q 5.980439208984375 0.3015000000000001 5.987939208984375 0.4575 L 5.668439208984375 0.4575 Q 5.666939208984375 0.4095000000000001 5.639189208984375 0.38550000000000006 Q 5.6114392089843745 0.36150000000000004 5.567939208984375 0.36150000000000004 Q 5.534939208984374 0.36150000000000004 5.513939208984374 0.381 Q 5.4929392089843745 0.4005000000000001 5.4929392089843745 0.4365 Q 5.4929392089843745 0.4665 5.5161892089843745 0.4882500000000001 Q 5.5394392089843745 0.51 5.573939208984375 0.52575 Q 5.608439208984374 0.5415000000000001 5.675939208984374 0.5655 Q 5.776439208984375 0.6000000000000001 5.841689208984374 0.63375 Q 5.906939208984375 0.6675000000000001 5.954189208984375 0.7282500000000001 Q 6.001439208984375 0.789 6.001439208984375 0.8820000000000001 Q 6.001439208984375 0.9765 5.954189208984375 1.0515 Q 5.906939208984375 1.1265 5.817689208984374 1.1700000000000002 Q 5.7284392089843745 1.2135 5.606939208984374 1.2135 Q 5.4224392089843745 1.2135 5.303939208984374 1.12575 M 7.400900390625 1.203 L 7.1069003906249995 1.203 L 6.715400390625 0.6120000000000001 L 6.715400390625 1.203 L 6.421400390624999 1.203 L 6.421400390624999 0.14549999999999996 L 6.715400390625 0.14549999999999996 L 7.1069003906249995 0.744 L 7.1069003906249995 0.14549999999999996 L 7.400900390625 0.14549999999999996 L 7.400900390625 1.203 M 7.86142236328125 0.381 L 7.86142236328125 0.5535000000000001 L 8.19892236328125 0.5535000000000001 L 8.19892236328125 0.7770000000000001 L 7.86142236328125 0.7770000000000001 L 7.86142236328125 0.9675 L 8.24392236328125 0.9675 L 8.24392236328125 1.203 L 7.567422363281249 1.203 L 7.567422363281249 0.14549999999999996 L 8.24392236328125 0.14549999999999996 L 8.24392236328125 0.381 L 7.86142236328125 0.381 M 9.877382812499999 0.14549999999999996 L 9.6178828125 1.203 L 9.2563828125 1.203 L 9.1108828125 0.555 L 8.9623828125 1.203 L 8.6008828125 1.203 L 8.3443828125 0.14549999999999996 L 8.662382812499999 0.14549999999999996 L 8.7853828125 0.8685 L 8.9518828125 0.14549999999999996 L 9.274382812499999 0.14549999999999996 L 9.4363828125 0.8625 L 9.559382812499999 0.14549999999999996 L 9.877382812499999 0.14549999999999996" fill="#bf9525" fill-rule="nonzero"></path></g><g></g></g><defs><clipPath id="SvgjsClipPath16292"><path d=" M 0.6643710441108341 -6.980713729069379 h 8.589123878575208 v 6.730713729069379 h -8.589123878575208 Z"></path></clipPath><clipPath id="SvgjsClipPath16287e0608530-c4b8-4b68-b5be-b12ae9722710"><path d=" M 0.6643710441108341 -6.980713729069379 L 9.253494922686041 -6.980713729069379 L 9.253494922686041 -0.25 L 0.6643710441108341 -0.25 Z"></path></clipPath></defs></svg>